 useGSAP(() => {
    // gsap code here...
    var tl = gsap.timeline();
    tl.from("#Amaterasu", {
      xPercent: 100,
      duration: 2,
      opacity: 0,
      ease: "power2.inOut",
    })
      .from(
        "#FashionablyYours",
        {
          xPercent: -100,
          duration: 2,
          opacity: 0,
          ease: "power2.inOut",
        },
        "<"
      )
      .to(".loader-container", {
        backgroundColor: "#E0115F",
        duration: 1.5,
        ease: "power2.inOut",
      })
      .to(".loader-container", {
        opacity: 0,
        duration: 1.3,
        ease: "power2.inOut",
      })
      .to(".loader-container", {
        visibility: "hidden",
      });
  });

<svg
          id="loader-svg"
          viewBox="0 0 186 48"
          fill="none"
          xmlns="http://www.w3.org/2000/svg"
          className=""
        >
          <g id="Group1">
            <path
              id="Amaterasu"
              d="M0.722344 24.072V23.472L0.938344 23.448C1.49834 23.368 1.95434 23.256 2.30634 23.112C2.67434 22.968 2.98634 22.736 3.24234 22.416C3.51434 22.08 3.77034 21.624 4.01034 21.048L9.81834 6.96H10.6343L16.2983 21.048C16.6183 21.832 16.9623 22.408 17.3303 22.776C17.6983 23.144 18.2023 23.36 18.8423 23.424L19.3223 23.472V24.072L16.3463 24L12.5063 24.072V23.472L12.9863 23.424C13.5463 23.36 13.9463 23.24 14.1863 23.064C14.4263 22.888 14.5463 22.64 14.5463 22.32C14.5463 22 14.4343 21.568 14.2103 21.024L12.9623 17.904H6.19434L4.89834 21.024C4.78634 21.312 4.69034 21.576 4.61034 21.816C4.53034 22.04 4.49034 22.24 4.49034 22.416C4.49034 22.72 4.61834 22.952 4.87434 23.112C5.14634 23.272 5.58634 23.376 6.19434 23.424L6.67434 23.472V24.072L3.62634 24L0.722344 24.072ZM6.50634 17.136H12.6743L9.65034 9.528L6.50634 17.136ZM23.6932 24.072V23.52L24.0772 23.472C24.5412 23.408 24.8932 23.336 25.1332 23.256C25.3892 23.16 25.5652 22.96 25.6612 22.656C25.7572 22.336 25.8052 21.816 25.8052 21.096V15.984C25.8052 15.264 25.7572 14.752 25.6612 14.448C25.5652 14.128 25.3892 13.92 25.1332 13.824C24.8932 13.728 24.5412 13.656 24.0772 13.608L23.6932 13.56V13.008L26.6452 13.08H27.5572L31.6132 21.648L35.7412 13.08H39.0052V13.656L38.0932 13.704C37.7252 13.72 37.4932 13.84 37.3972 14.064C37.3172 14.272 37.2772 14.576 37.2772 14.976V21.072C37.2772 21.792 37.3252 22.312 37.4212 22.632C37.5172 22.936 37.6852 23.136 37.9252 23.232C38.1812 23.312 38.5412 23.384 39.0052 23.448L39.3892 23.496V24.048L36.4372 23.976L33.4852 24.048V23.496L33.8692 23.448C34.3332 23.384 34.6852 23.312 34.9252 23.232C35.1812 23.136 35.3572 22.936 35.4532 22.632C35.5492 22.312 35.5972 21.792 35.5972 21.072V14.784L31.2292 23.88H30.8212L26.4052 14.616V21.096C26.4052 21.816 26.4532 22.336 26.5492 22.656C26.6452 22.96 26.8132 23.16 27.0532 23.256C27.3092 23.336 27.6692 23.408 28.1332 23.472L28.5172 23.52V24.072L26.1172 24.024L23.6932 24.072ZM44.1642 24.072V23.568L44.5002 23.496C44.7882 23.432 45.0202 23.352 45.1962 23.256C45.3882 23.16 45.5642 23 45.7242 22.776C45.8842 22.552 46.0522 22.224 46.2282 21.792L49.8522 13.08H50.7642L54.1242 21.168C54.4122 21.856 54.6602 22.376 54.8682 22.728C55.0762 23.08 55.3802 23.304 55.7802 23.4L56.5002 23.568V24.072L54.0042 24L51.1962 24.072V23.568L52.1082 23.4C52.2522 23.368 52.3802 23.312 52.4922 23.232C52.6042 23.136 52.6602 22.984 52.6602 22.776C52.6602 22.6 52.6122 22.384 52.5162 22.128L51.7962 20.304H47.5242L46.9482 21.744C46.8362 22.048 46.7402 22.304 46.6602 22.512C46.5962 22.72 46.5642 22.888 46.5642 23.016C46.5642 23.176 46.6122 23.288 46.7082 23.352C46.8042 23.416 46.9322 23.464 47.0922 23.496L47.7162 23.568V24.072L45.9162 24L44.1642 24.072ZM49.7082 14.904L47.7642 19.704H51.5802L49.7082 14.904ZM62.8938 24.072V23.52L63.3018 23.472C63.7978 23.408 64.1738 23.336 64.4298 23.256C64.6858 23.16 64.8618 22.96 64.9578 22.656C65.0538 22.336 65.1018 21.816 65.1018 21.096V13.656H63.1578C62.6778 13.656 62.2858 13.768 61.9818 13.992C61.6938 14.2 61.4378 14.544 61.2138 15.024C60.9898 15.488 60.7258 16.104 60.4218 16.872L59.9178 16.776L60.3498 14.616L60.5418 13.032L65.9658 13.08L71.5818 13.032L71.7738 14.616L72.2298 16.776L71.7018 16.896C71.4938 16.128 71.2778 15.504 71.0538 15.024C70.8458 14.544 70.5818 14.2 70.2618 13.992C69.9418 13.768 69.5098 13.656 68.9658 13.656H66.8298V21.096C66.8298 21.816 66.8858 22.336 66.9978 22.656C67.1098 22.96 67.3018 23.16 67.5738 23.256C67.8458 23.336 68.2218 23.408 68.7018 23.472L69.1098 23.52V24.072L66.0138 24L62.8938 24.072ZM77.0671 24.072V23.52L77.4511 23.472C77.9151 23.408 78.2671 23.336 78.5071 23.256C78.7631 23.16 78.9391 22.96 79.0351 22.656C79.1311 22.336 79.1791 21.816 79.1791 21.096V15.984C79.1791 15.264 79.1311 14.752 79.0351 14.448C78.9551 14.128 78.7871 13.92 78.5311 13.824C78.2911 13.728 77.9391 13.656 77.4751 13.608L77.0911 13.56V13.008L80.0431 13.08H86.3551V14.136L86.4991 15.768H85.9951C85.8351 15.272 85.6671 14.872 85.4911 14.568C85.3311 14.264 85.0751 14.04 84.7231 13.896C84.3711 13.752 83.8271 13.68 83.0911 13.68H80.8591V18.096H82.8511C83.1231 18.096 83.3551 17.968 83.5471 17.712C83.7391 17.44 83.8511 16.928 83.8831 16.176H84.3871L84.3151 18.384L84.3871 20.784H83.8831C83.8831 20 83.7871 19.448 83.5951 19.128C83.4031 18.808 83.1311 18.648 82.7791 18.648H80.8591V22.128C80.8591 22.528 80.9631 22.84 81.1711 23.064C81.3951 23.288 81.8191 23.4 82.4431 23.4H84.0271C84.6511 23.4 85.1151 23.288 85.4191 23.064C85.7391 22.84 85.9711 22.512 86.1151 22.08C86.2751 21.648 86.4191 21.136 86.5471 20.544H87.0511L86.8831 22.488V24H80.0191L77.0671 24.072ZM103.141 24.264C102.581 24.264 102.117 24.104 101.749 23.784C101.381 23.448 101.093 22.768 100.885 21.744C100.805 21.296 100.677 20.848 100.501 20.4C100.325 19.952 100.037 19.584 99.6372 19.296C99.2372 18.992 98.6452 18.84 97.8612 18.84H96.4692V21.12C96.4692 21.824 96.5172 22.336 96.6132 22.656C96.7092 22.96 96.8772 23.16 97.1172 23.256C97.3732 23.336 97.7332 23.408 98.1972 23.472L98.5812 23.52V24.072L95.6532 24L92.7252 24.072V23.52L93.1092 23.472C93.5732 23.408 93.9252 23.336 94.1652 23.256C94.4212 23.16 94.5972 22.96 94.6932 22.656C94.7892 22.336 94.8372 21.824 94.8372 21.12V15.984C94.8372 15.344 94.7892 14.864 94.6932 14.544C94.6132 14.224 94.4532 14 94.2132 13.872C93.9892 13.744 93.6692 13.664 93.2532 13.632L92.7252 13.584V13.032L95.6772 13.08H98.9892C99.7092 13.08 100.373 13.168 100.981 13.344C101.589 13.504 102.077 13.792 102.445 14.208C102.813 14.608 102.997 15.176 102.997 15.912C102.997 16.584 102.813 17.12 102.445 17.52C102.093 17.904 101.653 18.192 101.125 18.384C100.597 18.576 100.077 18.704 99.5652 18.768C100.413 18.848 101.101 19.104 101.629 19.536C102.173 19.968 102.533 20.728 102.709 21.816C102.837 22.568 103.021 23.032 103.261 23.208C103.517 23.368 103.829 23.448 104.197 23.448C104.309 23.448 104.421 23.432 104.533 23.4C104.645 23.368 104.741 23.336 104.821 23.304L104.941 23.856C104.733 23.936 104.477 24.024 104.173 24.12C103.869 24.216 103.525 24.264 103.141 24.264ZM98.7492 13.656H96.4692V18.264H98.3892C99.3652 18.264 100.061 18.08 100.477 17.712C100.893 17.328 101.101 16.728 101.101 15.912C101.101 15.256 100.941 14.72 100.621 14.304C100.317 13.872 99.6932 13.656 98.7492 13.656ZM108.719 24.072V23.568L109.055 23.496C109.343 23.432 109.575 23.352 109.751 23.256C109.943 23.16 110.119 23 110.279 22.776C110.439 22.552 110.607 22.224 110.783 21.792L114.407 13.08H115.319L118.679 21.168C118.967 21.856 119.215 22.376 119.423 22.728C119.631 23.08 119.935 23.304 120.335 23.4L121.055 23.568V24.072L118.559 24L115.751 24.072V23.568L116.663 23.4C116.807 23.368 116.935 23.312 117.047 23.232C117.159 23.136 117.215 22.984 117.215 22.776C117.215 22.6 117.167 22.384 117.071 22.128L116.351 20.304H112.079L111.503 21.744C111.391 22.048 111.295 22.304 111.215 22.512C111.151 22.72 111.119 22.888 111.119 23.016C111.119 23.176 111.167 23.288 111.263 23.352C111.359 23.416 111.487 23.464 111.647 23.496L112.271 23.568V24.072L110.471 24L108.719 24.072ZM114.263 14.904L112.319 19.704H116.135L114.263 14.904ZM130.023 24.264C129.591 24.264 129.199 24.208 128.847 24.096C128.511 23.984 128.223 23.864 127.983 23.736C127.743 23.608 127.551 23.512 127.407 23.448C127.279 23.384 127.151 23.352 127.023 23.352C126.847 23.352 126.727 23.416 126.663 23.544C126.599 23.672 126.559 23.832 126.543 24.024H126.039L126.111 22.32L126.015 19.968H126.567C126.663 20.992 127.007 21.856 127.599 22.56C128.207 23.248 128.975 23.592 129.903 23.592C130.495 23.592 130.999 23.416 131.415 23.064C131.831 22.712 132.039 22.24 132.039 21.648C132.039 20.976 131.847 20.464 131.463 20.112C131.079 19.76 130.607 19.464 130.047 19.224L128.751 18.672C128.047 18.368 127.487 17.968 127.071 17.472C126.671 16.976 126.471 16.376 126.471 15.672C126.471 14.776 126.783 14.064 127.407 13.536C128.047 13.008 128.839 12.744 129.783 12.744C130.119 12.744 130.423 12.784 130.695 12.864C130.967 12.944 131.207 13.024 131.415 13.104C131.879 13.296 132.183 13.392 132.327 13.392C132.423 13.392 132.495 13.352 132.543 13.272C132.591 13.192 132.623 13.04 132.639 12.816H133.167L133.119 14.304L133.143 16.152H132.639C132.495 15.304 132.175 14.64 131.679 14.16C131.199 13.664 130.615 13.416 129.927 13.416C129.287 13.416 128.807 13.6 128.487 13.968C128.167 14.336 128.007 14.728 128.007 15.144C128.007 15.576 128.111 15.936 128.319 16.224C128.543 16.496 128.807 16.72 129.111 16.896C129.415 17.056 129.695 17.2 129.951 17.328L131.079 17.832C132.007 18.232 132.655 18.72 133.023 19.296C133.391 19.856 133.575 20.464 133.575 21.12C133.575 21.664 133.431 22.176 133.143 22.656C132.855 23.136 132.447 23.528 131.919 23.832C131.391 24.12 130.759 24.264 130.023 24.264ZM145.879 24.24C144.999 24.24 144.199 24.104 143.479 23.832C142.775 23.544 142.215 23.088 141.799 22.464C141.383 21.84 141.175 21.032 141.175 20.04V15.984C141.175 15.264 141.127 14.752 141.031 14.448C140.935 14.128 140.759 13.92 140.503 13.824C140.263 13.728 139.911 13.656 139.447 13.608L139.063 13.56V13.008L142.015 13.08L144.967 13.008V13.56L144.583 13.608C144.119 13.656 143.759 13.728 143.503 13.824C143.263 13.92 143.095 14.128 142.999 14.448C142.903 14.752 142.855 15.264 142.855 15.984V20.04C142.855 21.144 143.143 22 143.719 22.608C144.311 23.216 145.119 23.52 146.143 23.52C147.071 23.52 147.823 23.24 148.399 22.68C148.975 22.12 149.263 21.216 149.263 19.968V16.008C149.263 15.288 149.215 14.776 149.119 14.472C149.023 14.152 148.847 13.944 148.591 13.848C148.351 13.752 147.999 13.68 147.535 13.632L147.151 13.584V13.032L149.575 13.08L151.999 13.032V13.584L151.615 13.632C151.151 13.68 150.791 13.752 150.535 13.848C150.295 13.944 150.127 14.152 150.031 14.472C149.935 14.776 149.887 15.288 149.887 16.008V19.968C149.887 21.392 149.519 22.464 148.783 23.184C148.063 23.888 147.095 24.24 145.879 24.24Z"
              fill="white"
            />
            <path
              id="FashionablyYours"
              d="M46.8925 43.048V42.648L47.2125 42.616C47.5858 42.5733 47.8685 42.52 48.0605 42.456C48.2632 42.3813 48.4018 42.232 48.4765 42.008C48.5512 41.7733 48.5885 41.3947 48.5885 40.872V33.768C48.5885 33.2347 48.5512 32.856 48.4765 32.632C48.4018 32.408 48.2632 32.264 48.0605 32.2C47.8685 32.1253 47.5858 32.0667 47.2125 32.024L46.8925 31.992V31.592L49.2605 31.64H55.6925L55.7405 32.808L55.8845 34.232H55.5005C55.4578 33.6987 55.3298 33.288 55.1165 33C54.9138 32.7013 54.6632 32.4933 54.3645 32.376C54.0658 32.248 53.7565 32.1733 53.4365 32.152C53.1272 32.12 52.8392 32.104 52.5725 32.104H49.9485V36.792H51.7405C51.9538 36.792 52.1405 36.744 52.3005 36.648C52.4605 36.5413 52.5885 36.3493 52.6845 36.072C52.7912 35.7947 52.8552 35.3947 52.8765 34.872H53.2765L53.2285 37.016L53.2765 39.384H52.8765C52.8765 38.6053 52.7805 38.056 52.5885 37.736C52.3965 37.4053 52.1138 37.24 51.7405 37.24H49.9485V40.872C49.9485 41.3947 49.9912 41.7787 50.0765 42.024C50.1618 42.2587 50.3058 42.4133 50.5085 42.488C50.7112 42.552 50.9832 42.5947 51.3245 42.616L51.8685 42.648V43.048L49.2765 43H49.2605L46.8925 43.048ZM55.6506 43.048V42.712L55.8746 42.664C56.0666 42.6213 56.2213 42.568 56.3386 42.504C56.4666 42.44 56.584 42.3333 56.6906 42.184C56.7973 42.0347 56.9093 41.816 57.0266 41.528L59.4426 35.72H60.0506L62.2906 41.112C62.4826 41.5707 62.648 41.9173 62.7866 42.152C62.9253 42.3867 63.128 42.536 63.3946 42.6L63.8746 42.712V43.048L62.2106 43L60.3386 43.048V42.712L60.9466 42.6C61.0426 42.5787 61.128 42.5413 61.2026 42.488C61.2773 42.424 61.3146 42.3227 61.3146 42.184C61.3146 42.0667 61.2826 41.9227 61.2186 41.752L60.7386 40.536H57.8906L57.5066 41.496C57.432 41.6987 57.368 41.8693 57.3146 42.008C57.272 42.1467 57.2506 42.2587 57.2506 42.344C57.2506 42.4507 57.2826 42.5253 57.3466 42.568C57.4106 42.6107 57.496 42.6427 57.6026 42.664L58.0186 42.712V43.048L56.8186 43L55.6506 43.048ZM59.3466 36.936L58.0506 40.136H60.5946L59.3466 36.936ZM67.4534 43.176C67.1654 43.176 66.904 43.1387 66.6694 43.064C66.4454 42.9893 66.2534 42.9093 66.0934 42.824C65.9334 42.7387 65.8054 42.6747 65.7094 42.632C65.624 42.5893 65.5387 42.568 65.4534 42.568C65.336 42.568 65.256 42.6107 65.2134 42.696C65.1707 42.7813 65.144 42.888 65.1334 43.016H64.7974L64.8454 41.88L64.7814 40.312H65.1494C65.2134 40.9947 65.4427 41.5707 65.8374 42.04C66.2427 42.4987 66.7547 42.728 67.3734 42.728C67.768 42.728 68.104 42.6107 68.3814 42.376C68.6587 42.1413 68.7974 41.8267 68.7974 41.432C68.7974 40.984 68.6694 40.6427 68.4134 40.408C68.1574 40.1733 67.8427 39.976 67.4694 39.816L66.6054 39.448C66.136 39.2453 65.7627 38.9787 65.4854 38.648C65.2187 38.3173 65.0854 37.9173 65.0854 37.448C65.0854 36.8507 65.2934 36.376 65.7094 36.024C66.136 35.672 66.664 35.496 67.2934 35.496C67.5174 35.496 67.72 35.5227 67.9014 35.576C68.0827 35.6293 68.2427 35.6827 68.3814 35.736C68.6907 35.864 68.8934 35.928 68.9894 35.928C69.0534 35.928 69.1014 35.9013 69.1334 35.848C69.1654 35.7947 69.1867 35.6933 69.1974 35.544H69.5494L69.5174 36.536L69.5334 37.768H69.1974C69.1014 37.2027 68.888 36.76 68.5574 36.44C68.2374 36.1093 67.848 35.944 67.3894 35.944C66.9627 35.944 66.6427 36.0667 66.4294 36.312C66.216 36.5573 66.1094 36.8187 66.1094 37.096C66.1094 37.384 66.1787 37.624 66.3174 37.816C66.4667 37.9973 66.6427 38.1467 66.8454 38.264C67.048 38.3707 67.2347 38.4667 67.4054 38.552L68.1574 38.888C68.776 39.1547 69.208 39.48 69.4534 39.864C69.6987 40.2373 69.8214 40.6427 69.8214 41.08C69.8214 41.4427 69.7254 41.784 69.5334 42.104C69.3414 42.424 69.0694 42.6853 68.7174 42.888C68.3654 43.08 67.944 43.176 67.4534 43.176ZM71.2081 43.048V42.68L71.4641 42.648C71.7735 42.6053 72.0081 42.5573 72.1681 42.504C72.3388 42.44 72.4508 42.3067 72.5041 42.104C72.5681 41.8907 72.6001 41.544 72.6001 41.064V37.656C72.6001 37.176 72.5681 36.8347 72.5041 36.632C72.4401 36.4187 72.3228 36.28 72.1521 36.216C71.9921 36.152 71.7575 36.104 71.4481 36.072L71.1921 36.04V35.672L73.1601 35.72H73.1761L75.1441 35.672V36.04L74.8881 36.072C74.5788 36.104 74.3388 36.152 74.1681 36.216C74.0081 36.28 73.8961 36.4187 73.8321 36.632C73.7681 36.8347 73.7361 37.176 73.7361 37.656V39.208H77.7681V37.656C77.7681 37.176 77.7361 36.8347 77.6721 36.632C77.6081 36.4187 77.4908 36.28 77.3201 36.216C77.1601 36.152 76.9255 36.104 76.6161 36.072L76.3601 36.04V35.672L78.3281 35.72L80.2961 35.672V36.04L80.0401 36.072C79.7308 36.104 79.4908 36.152 79.3201 36.216C79.1601 36.28 79.0481 36.4187 78.9841 36.632C78.9201 36.8347 78.8881 37.176 78.8881 37.656V41.064C78.8881 41.544 78.9201 41.8907 78.9841 42.104C79.0481 42.3067 79.1601 42.44 79.3201 42.504C79.4908 42.5573 79.7308 42.6053 80.0401 42.648L80.2961 42.68V43.048L78.3281 43L76.3601 43.048V42.68L76.6161 42.648C76.9255 42.6053 77.1601 42.5573 77.3201 42.504C77.4908 42.44 77.6081 42.3067 77.6721 42.104C77.7361 41.8907 77.7681 41.544 77.7681 41.064V39.608H73.7361V41.064C73.7361 41.544 73.7681 41.8907 73.8321 42.104C73.8961 42.3067 74.0081 42.44 74.1681 42.504C74.3388 42.5573 74.5788 42.6053 74.8881 42.648L75.1441 42.68V43.048L73.1761 43L71.2081 43.048ZM81.5594 43.048V42.68L81.8154 42.648C82.1247 42.6053 82.3594 42.5573 82.5194 42.504C82.69 42.44 82.802 42.3067 82.8554 42.104C82.9194 41.8907 82.9514 41.544 82.9514 41.064V37.656C82.9514 37.176 82.9194 36.8347 82.8554 36.632C82.7914 36.4187 82.674 36.28 82.5034 36.216C82.3434 36.152 82.1087 36.104 81.7994 36.072L81.5434 36.04V35.672L83.5114 35.72L85.4794 35.672V36.04L85.2234 36.072C84.914 36.104 84.674 36.152 84.5034 36.216C84.3434 36.28 84.2314 36.4187 84.1674 36.632C84.1034 36.8347 84.0714 37.176 84.0714 37.656V41.064C84.0714 41.544 84.1034 41.8907 84.1674 42.104C84.2314 42.3067 84.3487 42.44 84.5194 42.504C84.69 42.5573 84.93 42.6053 85.2394 42.648L85.4954 42.68V43.048L83.5274 43L81.5594 43.048ZM91.1384 43.176C90.6157 43.176 90.109 43.0853 89.6184 42.904C89.1277 42.712 88.685 42.4453 88.2904 42.104C87.9064 41.7627 87.597 41.3573 87.3624 40.888C87.1384 40.4187 87.0264 39.9067 87.0264 39.352C87.0264 38.7547 87.1437 38.2213 87.3784 37.752C87.613 37.2827 87.9277 36.8773 88.3224 36.536C88.7277 36.1947 89.1704 35.9387 89.6504 35.768C90.141 35.5867 90.637 35.496 91.1384 35.496C91.6077 35.496 92.0824 35.5813 92.5624 35.752C93.0424 35.912 93.4797 36.1573 93.8744 36.488C94.2797 36.8187 94.5997 37.224 94.8344 37.704C95.0797 38.1733 95.2024 38.7227 95.2024 39.352C95.2024 39.9067 95.085 40.4187 94.8504 40.888C94.6157 41.3467 94.301 41.7467 93.9064 42.088C93.5224 42.4293 93.0904 42.696 92.6104 42.888C92.1304 43.08 91.6397 43.176 91.1384 43.176ZM91.1384 42.696C91.7997 42.696 92.333 42.5467 92.7384 42.248C93.1437 41.9387 93.4424 41.5333 93.6344 41.032C93.8264 40.52 93.9224 39.96 93.9224 39.352C93.9224 38.3387 93.7037 37.5227 93.2664 36.904C92.8397 36.2853 92.1304 35.976 91.1384 35.976C90.4344 35.976 89.8744 36.1307 89.4584 36.44C89.0424 36.7387 88.7437 37.144 88.5624 37.656C88.3917 38.1573 88.3064 38.7227 88.3064 39.352C88.3064 39.9707 88.4077 40.536 88.6104 41.048C88.8237 41.5493 89.1384 41.9493 89.5544 42.248C89.9704 42.5467 90.4984 42.696 91.1384 42.696ZM96.2819 43.048V42.68L96.5379 42.648C96.8472 42.6053 97.0819 42.5573 97.2419 42.504C97.4125 42.44 97.5299 42.3067 97.5939 42.104C97.6579 41.8907 97.6899 41.544 97.6899 41.064V36.36C97.5619 36.2747 97.4179 36.2053 97.2579 36.152C97.0979 36.088 96.9165 36.056 96.7139 36.056H96.5859L96.5699 35.688L98.8259 35.72C98.9965 35.9333 99.2312 36.2213 99.5299 36.584C99.8392 36.9467 100.175 37.3413 100.538 37.768C100.901 38.184 101.263 38.6 101.626 39.016C101.989 39.4213 102.309 39.7893 102.586 40.12C102.874 40.44 103.087 40.68 103.226 40.84V37.656C103.226 37.176 103.194 36.8347 103.13 36.632C103.066 36.4293 102.949 36.296 102.778 36.232C102.618 36.168 102.383 36.12 102.074 36.088L101.818 36.056V35.688L103.434 35.72L105.034 35.688V36.056L104.778 36.088C104.469 36.12 104.229 36.168 104.058 36.232C103.898 36.296 103.786 36.4293 103.722 36.632C103.658 36.8347 103.626 37.176 103.626 37.656V43H103.226C103.087 42.7227 102.853 42.36 102.522 41.912C102.202 41.464 101.834 40.984 101.418 40.472C101.002 39.96 100.581 39.4533 100.154 38.952C99.7272 38.4507 99.3272 38.0027 98.9539 37.608C98.5912 37.2027 98.3032 36.8987 98.0899 36.696V41.064C98.0899 41.544 98.1219 41.8907 98.1859 42.104C98.2499 42.3067 98.3619 42.44 98.5219 42.504C98.6925 42.5573 98.9325 42.6053 99.2419 42.648L99.4979 42.68V43.048L97.8979 43.016L96.2819 43.048ZM105.149 43.048V42.712L105.373 42.664C105.565 42.6213 105.719 42.568 105.837 42.504C105.965 42.44 106.082 42.3333 106.189 42.184C106.295 42.0347 106.407 41.816 106.525 41.528L108.941 35.72H109.549L111.789 41.112C111.981 41.5707 112.146 41.9173 112.285 42.152C112.423 42.3867 112.626 42.536 112.893 42.6L113.373 42.712V43.048L111.709 43L109.837 43.048V42.712L110.445 42.6C110.541 42.5787 110.626 42.5413 110.701 42.488C110.775 42.424 110.813 42.3227 110.813 42.184C110.813 42.0667 110.781 41.9227 110.717 41.752L110.237 40.536H107.389L107.005 41.496C106.93 41.6987 106.866 41.8693 106.813 42.008C106.77 42.1467 106.749 42.2587 106.749 42.344C106.749 42.4507 106.781 42.5253 106.845 42.568C106.909 42.6107 106.994 42.6427 107.101 42.664L107.517 42.712V43.048L106.317 43L105.149 43.048ZM108.845 36.936L107.549 40.136H110.093L108.845 36.936ZM114.152 43.048V42.68L114.408 42.648C114.717 42.6053 114.957 42.5573 115.128 42.504C115.298 42.44 115.416 42.3067 115.48 42.104C115.544 41.8907 115.576 41.544 115.576 41.064V37.656C115.576 37.176 115.544 36.8347 115.48 36.632C115.416 36.4187 115.298 36.28 115.128 36.216C114.968 36.152 114.733 36.104 114.424 36.072L114.168 36.04V35.672L116.136 35.72H117.928C118.226 35.72 118.541 35.7413 118.872 35.784C119.213 35.816 119.528 35.8907 119.816 36.008C120.114 36.1147 120.354 36.2747 120.536 36.488C120.717 36.7013 120.808 36.9787 120.808 37.32C120.808 37.672 120.717 37.9653 120.536 38.2C120.365 38.4347 120.141 38.6213 119.864 38.76C119.597 38.888 119.32 38.984 119.032 39.048C119.405 39.0907 119.762 39.176 120.104 39.304C120.445 39.4213 120.722 39.608 120.936 39.864C121.16 40.12 121.272 40.4667 121.272 40.904C121.272 41.3093 121.181 41.6453 121 41.912C120.829 42.1787 120.61 42.392 120.344 42.552C120.088 42.712 119.821 42.8293 119.544 42.904C119.277 42.968 119.048 43 118.856 43H116.12L114.152 43.048ZM117.608 36.104H116.648V38.952H118.232C118.669 38.952 119 38.8187 119.224 38.552C119.458 38.2853 119.576 37.9067 119.576 37.416C119.576 36.9253 119.416 36.584 119.096 36.392C118.786 36.2 118.29 36.104 117.608 36.104ZM117.688 42.616H118.296C119.458 42.616 120.04 42.0453 120.04 40.904C120.04 40.4133 119.938 40.0613 119.736 39.848C119.533 39.624 119.261 39.4853 118.92 39.432C118.589 39.368 118.232 39.336 117.848 39.336H116.648V41.464C116.648 41.8587 116.738 42.152 116.92 42.344C117.112 42.5253 117.368 42.616 117.688 42.616ZM122.643 43.048V42.68L122.899 42.648C123.209 42.6053 123.443 42.5573 123.603 42.504C123.774 42.44 123.891 42.3067 123.955 42.104C124.019 41.8907 124.051 41.544 124.051 41.064V37.656C124.051 37.176 124.019 36.8347 123.955 36.632C123.891 36.4187 123.774 36.28 123.603 36.216C123.443 36.152 123.209 36.104 122.899 36.072L122.643 36.04V35.672L124.611 35.72L126.579 35.672V36.04L126.323 36.072C126.014 36.104 125.774 36.152 125.603 36.216C125.443 36.28 125.331 36.4187 125.267 36.632C125.203 36.8347 125.171 37.176 125.171 37.656V41.096C125.171 41.5653 125.225 41.9333 125.331 42.2C125.449 42.4667 125.731 42.6 126.179 42.6H127.059C127.689 42.6 128.142 42.4133 128.419 42.04C128.707 41.656 128.883 41.1067 128.947 40.392H129.315L129.203 43.032L124.611 43L122.643 43.048ZM130.925 43.032V42.664L131.181 42.632C131.49 42.5893 131.725 42.5413 131.885 42.488C132.055 42.424 132.173 42.2907 132.237 42.088C132.301 41.8747 132.333 41.528 132.333 41.048V40.216L130.413 37.032C130.285 36.808 130.173 36.6373 130.077 36.52C129.991 36.392 129.895 36.3013 129.789 36.248C129.693 36.184 129.554 36.136 129.373 36.104L129.053 36.04V35.672L130.877 35.72L132.541 35.672V36.04L132.109 36.072C131.97 36.0827 131.826 36.1307 131.677 36.216C131.527 36.2907 131.453 36.408 131.453 36.568C131.453 36.664 131.485 36.7707 131.549 36.888L133.165 39.608L134.621 36.792C134.674 36.696 134.701 36.6 134.701 36.504C134.701 36.3653 134.637 36.264 134.509 36.2C134.391 36.1253 134.242 36.0827 134.061 36.072L133.693 36.04V35.688L135.165 35.736L136.477 35.688V36.04L136.125 36.072C135.847 36.0933 135.623 36.184 135.453 36.344C135.282 36.4933 135.133 36.6907 135.005 36.936L133.453 39.944V41.048C133.453 41.4853 133.485 41.8107 133.549 42.024C133.613 42.2373 133.735 42.3813 133.917 42.456C134.098 42.5307 134.359 42.5893 134.701 42.632L134.973 42.664V43.032L132.893 42.984L130.925 43.032ZM143.647 43.048V42.648L143.967 42.616C144.341 42.5733 144.623 42.52 144.815 42.456C145.018 42.3813 145.157 42.232 145.231 42.008C145.306 41.7733 145.343 41.3947 145.343 40.872V38.408L142.543 33.512C142.298 33.0747 142.053 32.7493 141.807 32.536C141.562 32.3227 141.221 32.1733 140.783 32.088L140.319 31.992V31.592L142.751 31.64L145.151 31.592V31.992L144.639 32.04C144.373 32.0613 144.159 32.1253 143.999 32.232C143.839 32.3387 143.759 32.4987 143.759 32.712C143.759 32.9573 143.877 33.2827 144.111 33.688L146.447 37.752L148.767 33.688C149.002 33.2613 149.119 32.9307 149.119 32.696C149.119 32.472 149.034 32.312 148.863 32.216C148.693 32.12 148.474 32.0613 148.207 32.04L147.743 31.992V31.592L149.855 31.672L151.551 31.592V31.992L151.119 32.072C150.778 32.136 150.495 32.2587 150.271 32.44C150.058 32.6213 149.839 32.9093 149.615 33.304L146.703 38.392V40.872C146.703 41.3947 146.741 41.7733 146.815 42.008C146.89 42.232 147.029 42.3813 147.231 42.456C147.434 42.52 147.717 42.5733 148.079 42.616L148.399 42.648V43.048L146.031 43H146.015L143.647 43.048ZM156.417 43.176C155.894 43.176 155.388 43.0853 154.897 42.904C154.406 42.712 153.964 42.4453 153.569 42.104C153.185 41.7627 152.876 41.3573 152.641 40.888C152.417 40.4187 152.305 39.9067 152.305 39.352C152.305 38.7547 152.422 38.2213 152.657 37.752C152.892 37.2827 153.206 36.8773 153.601 36.536C154.006 36.1947 154.449 35.9387 154.929 35.768C155.42 35.5867 155.916 35.496 156.417 35.496C156.886 35.496 157.361 35.5813 157.841 35.752C158.321 35.912 158.758 36.1573 159.153 36.488C159.558 36.8187 159.878 37.224 160.113 37.704C160.358 38.1733 160.481 38.7227 160.481 39.352C160.481 39.9067 160.364 40.4187 160.129 40.888C159.894 41.3467 159.58 41.7467 159.185 42.088C158.801 42.4293 158.369 42.696 157.889 42.888C157.409 43.08 156.918 43.176 156.417 43.176ZM156.417 42.696C157.078 42.696 157.612 42.5467 158.017 42.248C158.422 41.9387 158.721 41.5333 158.913 41.032C159.105 40.52 159.201 39.96 159.201 39.352C159.201 38.3387 158.982 37.5227 158.545 36.904C158.118 36.2853 157.409 35.976 156.417 35.976C155.713 35.976 155.153 36.1307 154.737 36.44C154.321 36.7387 154.022 37.144 153.841 37.656C153.67 38.1573 153.585 38.7227 153.585 39.352C153.585 39.9707 153.686 40.536 153.889 41.048C154.102 41.5493 154.417 41.9493 154.833 42.248C155.249 42.5467 155.777 42.696 156.417 42.696ZM166.457 43.16C165.87 43.16 165.337 43.0693 164.857 42.888C164.387 42.696 164.014 42.392 163.737 41.976C163.459 41.56 163.321 41.0213 163.321 40.36V37.656C163.321 37.176 163.289 36.8347 163.225 36.632C163.161 36.4187 163.043 36.28 162.873 36.216C162.713 36.152 162.478 36.104 162.169 36.072L161.913 36.04V35.672L163.881 35.72L165.849 35.672V36.04L165.593 36.072C165.283 36.104 165.043 36.152 164.873 36.216C164.713 36.28 164.601 36.4187 164.537 36.632C164.473 36.8347 164.441 37.176 164.441 37.656V40.36C164.441 41.096 164.633 41.6667 165.017 42.072C165.411 42.4773 165.95 42.68 166.633 42.68C167.251 42.68 167.753 42.4933 168.137 42.12C168.521 41.7467 168.713 41.144 168.713 40.312V37.672C168.713 37.192 168.681 36.8507 168.617 36.648C168.553 36.4347 168.435 36.296 168.265 36.232C168.105 36.168 167.87 36.12 167.561 36.088L167.305 36.056V35.688L168.921 35.72L170.537 35.688V36.056L170.281 36.088C169.971 36.12 169.731 36.168 169.561 36.232C169.401 36.296 169.289 36.4347 169.225 36.648C169.161 36.8507 169.129 37.192 169.129 37.672V40.312C169.129 41.2613 168.883 41.976 168.393 42.456C167.913 42.9253 167.267 43.16 166.457 43.16ZM178.211 43.176C177.837 43.176 177.528 43.0693 177.283 42.856C177.037 42.632 176.845 42.1787 176.707 41.496C176.653 41.1973 176.568 40.8987 176.451 40.6C176.333 40.3013 176.141 40.056 175.875 39.864C175.608 39.6613 175.213 39.56 174.691 39.56H173.763V41.08C173.763 41.5493 173.795 41.8907 173.859 42.104C173.923 42.3067 174.035 42.44 174.195 42.504C174.365 42.5573 174.605 42.6053 174.915 42.648L175.171 42.68V43.048L173.219 43L171.267 43.048V42.68L171.523 42.648C171.832 42.6053 172.067 42.5573 172.227 42.504C172.397 42.44 172.515 42.3067 172.579 42.104C172.643 41.8907 172.675 41.5493 172.675 41.08V37.656C172.675 37.2293 172.643 36.9093 172.579 36.696C172.525 36.4827 172.419 36.3333 172.259 36.248C172.109 36.1627 171.896 36.1093 171.619 36.088L171.267 36.056V35.688L173.235 35.72H175.443C175.923 35.72 176.365 35.7787 176.771 35.896C177.176 36.0027 177.501 36.1947 177.747 36.472C177.992 36.7387 178.115 37.1173 178.115 37.608C178.115 38.056 177.992 38.4133 177.747 38.68C177.512 38.936 177.219 39.128 176.867 39.256C176.515 39.384 176.168 39.4693 175.827 39.512C176.392 39.5653 176.851 39.736 177.203 40.024C177.565 40.312 177.805 40.8187 177.923 41.544C178.008 42.0453 178.131 42.3547 178.291 42.472C178.461 42.5787 178.669 42.632 178.915 42.632C178.989 42.632 179.064 42.6213 179.139 42.6C179.213 42.5787 179.277 42.5573 179.331 42.536L179.411 42.904C179.272 42.9573 179.101 43.016 178.899 43.08C178.696 43.144 178.467 43.176 178.211 43.176ZM175.283 36.104H173.763V39.176H175.043C175.693 39.176 176.157 39.0533 176.435 38.808C176.712 38.552 176.851 38.152 176.851 37.608C176.851 37.1707 176.744 36.8133 176.531 36.536C176.328 36.248 175.912 36.104 175.283 36.104ZM182.793 43.176C182.505 43.176 182.243 43.1387 182.009 43.064C181.785 42.9893 181.593 42.9093 181.433 42.824C181.273 42.7387 181.145 42.6747 181.049 42.632C180.963 42.5893 180.878 42.568 180.793 42.568C180.675 42.568 180.595 42.6107 180.553 42.696C180.51 42.7813 180.483 42.888 180.473 43.016H180.137L180.185 41.88L180.121 40.312H180.489C180.553 40.9947 180.782 41.5707 181.177 42.04C181.582 42.4987 182.094 42.728 182.713 42.728C183.107 42.728 183.443 42.6107 183.721 42.376C183.998 42.1413 184.137 41.8267 184.137 41.432C184.137 40.984 184.009 40.6427 183.753 40.408C183.497 40.1733 183.182 39.976 182.809 39.816L181.945 39.448C181.475 39.2453 181.102 38.9787 180.825 38.648C180.558 38.3173 180.425 37.9173 180.425 37.448C180.425 36.8507 180.633 36.376 181.049 36.024C181.475 35.672 182.003 35.496 182.633 35.496C182.857 35.496 183.059 35.5227 183.241 35.576C183.422 35.6293 183.582 35.6827 183.721 35.736C184.03 35.864 184.233 35.928 184.329 35.928C184.393 35.928 184.441 35.9013 184.473 35.848C184.505 35.7947 184.526 35.6933 184.537 35.544H184.889L184.857 36.536L184.873 37.768H184.537C184.441 37.2027 184.227 36.76 183.897 36.44C183.577 36.1093 183.187 35.944 182.729 35.944C182.302 35.944 181.982 36.0667 181.769 36.312C181.555 36.5573 181.449 36.8187 181.449 37.096C181.449 37.384 181.518 37.624 181.657 37.816C181.806 37.9973 181.982 38.1467 182.185 38.264C182.387 38.3707 182.574 38.4667 182.745 38.552L183.497 38.888C184.115 39.1547 184.547 39.48 184.793 39.864C185.038 40.2373 185.161 40.6427 185.161 41.08C185.161 41.4427 185.065 41.784 184.873 42.104C184.681 42.424 184.409 42.6853 184.057 42.888C183.705 43.08 183.283 43.176 182.793 43.176Z"
              fill="white"
            />
          </g>
        </svg>